<svg viewBox="0 0 48 48" xmlns="http://www.w3.org/2000/svg">
  <rect width="48" height="48" rx="11" fill="#2540D9"/>
  <path d="M11 16c0-3 2-5 5-5h16c3 0 5 2 5 5v12c0 3-2 5-5 5h-8l-6 5v-5h-2c-3 0-5-2-5-5V16z" fill="white"/>
  <path d="M16 21l8-3 8 3-8 3-8-3z" fill="#2540D9"/>
  <path d="M21 23v3c0 1 1.5 1.7 3 1.7s3-.7 3-1.7v-3" stroke="#2540D9" stroke-width="1.4" stroke-linecap="round" fill="none"/>
  <circle cx="32" cy="22" r="0.8" fill="#2540D9"/>
  <path d="M32 22v3" stroke="#2540D9" stroke-width="1" stroke-linecap="round"/>
</svg>
